<?xml version="1.0" encoding="UTF-8" standalone="no"?>
<!DOCTYPE svg PUBLIC "-//W3C//DTD SVG 20010904//EN"
              "http://www.w3.org/TR/2001/REC-SVG-20010904/DTD/svg10.dtd">

<svg xmlns="http://www.w3.org/2000/svg"
     width="56.2564mm" height="56.2564mm"
     viewBox="0 0 660 660">
  <path fill="currentColor" stroke="black" stroke-width="1"
        d="M 0.00,0.00
           C 0.00,0.00 660.00,0.00 660.00,0.00
             660.00,0.00 660.00,280.00 660.00,280.00
             660.00,280.00 651.00,280.00 651.00,280.00
             650.57,270.53 646.12,252.45 643.42,243.00
             634.58,212.00 624.40,188.67 607.80,161.00
             589.44,130.40 563.85,100.69 536.00,78.40
             504.42,53.13 471.46,34.17 433.00,21.35
             324.50,-14.81 206.33,8.88 119.00,82.44
             91.66,105.47 68.75,133.39 50.40,164.00
             35.18,189.38 24.68,214.60 16.58,243.00
             13.88,252.45 9.43,270.53 9.00,280.00
             9.00,280.00 0.00,280.00 0.00,280.00
             0.00,280.00 0.00,0.00 0.00,0.00 Z
           M 328.00,30.46
           C 328.00,30.46 341.00,31.00 341.00,31.00
             355.90,31.02 370.34,32.93 385.00,35.58
             476.68,52.14 556.54,112.70 598.19,196.00
             617.47,234.55 628.50,277.93 629.00,321.00
             629.00,321.00 629.66,330.00 629.66,330.00
             629.66,330.00 629.00,339.00 629.00,339.00
             627.61,457.88 549.93,565.28 440.00,608.80
             408.46,621.28 373.94,628.84 340.00,629.00
             340.00,629.00 330.00,629.66 330.00,629.66
             330.00,629.66 323.00,629.02 323.00,629.02
             323.00,629.02 311.00,629.02 311.00,629.02
             286.60,628.71 251.07,619.93 228.00,611.69
             199.71,601.59 172.97,586.99 149.00,568.87
             89.98,524.26 48.74,457.84 35.58,385.00
             32.93,370.34 31.02,355.90 31.00,341.00
             31.00,341.00 30.34,330.00 30.34,330.00
             30.34,330.00 31.00,321.00 31.00,321.00
             31.50,277.59 42.73,236.11 61.32,197.00
             67.57,183.85 75.72,170.98 83.98,159.00
             124.91,99.61 184.67,58.90 254.00,40.15
             268.75,36.16 297.99,31.02 313.00,31.00
             313.00,31.00 328.00,30.46 328.00,30.46 Z
           M 404.00,308.00
           C 431.84,305.72 462.88,287.44 477.91,264.00
             499.04,231.05 499.53,175.51 479.55,142.00
             473.76,132.30 466.11,124.14 457.00,117.49
             426.79,95.43 373.82,87.43 337.00,87.00
             337.00,87.00 322.00,86.00 322.00,86.00
             322.00,86.00 180.00,86.00 180.00,86.00
             180.00,86.00 180.00,558.00 180.00,558.00
             180.00,558.00 323.00,558.00 323.00,558.00
             323.00,558.00 362.00,558.00 362.00,558.00
             395.35,557.95 438.80,545.40 465.00,524.55
             498.89,497.59 510.07,462.97 510.00,421.00
             509.97,404.12 506.05,381.96 498.11,367.00
             483.57,339.59 458.03,324.46 429.00,316.14
             421.37,313.95 411.90,311.36 404.00,311.00
             404.00,311.00 404.00,308.00 404.00,308.00 Z
           M 240.00,138.00
           C 240.00,138.00 327.00,138.00 327.00,138.00
             327.00,138.00 339.00,138.91 339.00,138.91
             361.23,140.43 384.40,142.76 404.00,154.45
             423.74,166.22 431.11,187.04 431.96,209.00
             432.14,213.55 431.58,214.88 431.17,219.00
             428.90,241.73 422.03,261.33 401.00,273.54
             385.14,282.74 364.92,284.86 347.00,286.09
             347.00,286.09 335.00,287.00 335.00,287.00
             335.00,287.00 240.00,287.00 240.00,287.00
             240.00,287.00 240.00,138.00 240.00,138.00 Z
           M 240.00,337.00
           C 240.00,337.00 330.00,337.00 330.00,337.00
             330.00,337.00 350.00,338.00 350.00,338.00
             367.85,338.21 395.70,344.03 411.00,353.21
             435.16,367.70 444.27,391.09 445.26,418.00
             446.37,448.46 433.38,480.51 405.00,494.73
             380.57,506.97 352.62,507.00 326.00,507.00
             326.00,507.00 240.00,507.00 240.00,507.00
             240.00,507.00 240.00,337.00 240.00,337.00 Z
           M 0.00,380.00
           C 0.00,380.00 9.00,380.00 9.00,380.00
             9.43,389.47 13.88,407.55 16.58,417.00
             24.68,445.40 35.18,470.62 50.40,496.00
             68.75,526.61 91.66,554.53 119.00,577.56
             206.33,651.12 324.50,674.81 433.00,638.65
             471.46,625.83 504.42,606.87 536.00,581.60
             563.85,559.31 589.44,529.60 607.80,499.00
             624.40,471.33 634.58,448.00 643.42,417.00
             646.12,407.55 650.57,389.47 651.00,380.00
             651.00,380.00 660.00,380.00 660.00,380.00
             660.00,380.00 660.00,660.00 660.00,660.00
             660.00,660.00 0.00,660.00 0.00,660.00
             0.00,660.00 0.00,380.00 0.00,380.00 Z" />
</svg>
